<svg id="Layer_1" data-name="Layer 1" xmlns="http://www.w3.org/2000/svg" xmlns:xlink="http://www.w3.org/1999/xlink" viewBox="0 0 259 224"><defs><style>.cls-1{fill:#0c1330;}.cls-2{fill:#00d62e;}.cls-3{fill:#6dff24;}.cls-4{stroke:#000;stroke-miterlimit:10;}</style><symbol id="New_Symbol" data-name="New Symbol" viewBox="0 0 259 224"><path class="cls-1" d="M137,223.5a32.6,32.6,0,0,1-29.55-18.93l1.09-1.35c3.82-4.76,7.12-8.87,8.95-17.11.81-3.64-1.84-8.35-4-12.14-.69-1.23-1.35-2.39-1.82-3.4l.57-.67.6-.7-.91-.13c-.42,0-.82-.12-1.23-.2l-1-.18.37.88c.13.25.24.49.36.74-9.42,6.06-11.5,14.12-7,26.86,1.76,5,2.2,6.33,2.29,6.64l1-.23-.11.32-.37.17-.33-.13a3.29,3.29,0,0,1,.3.5A32.36,32.36,0,0,1,81,216.5c-.68,0-1.37,0-2.06-.06a32.82,32.82,0,0,1-30.4-30.89,32.47,32.47,0,0,1,.12-4.82c8.19-1.52,14.07-5,17-10,2.55-4.37,2.8-9.67.74-15.77a30.08,30.08,0,0,1,3.8-1.62l.93-.32-.8-.56c-1.51-1-2.84-2-4-3l-.84-.66,0,1.06c0,.37,0,.74,0,1.12,0,1.08-.06,2.2-.16,3.31-8,2.37-13.69,6.33-16.51,11.48-2.28,4.17-2.7,9-1.22,14.25A32.48,32.48,0,0,1,33,183.5q-1,0-1.92-.06A32.5,32.5,0,0,1,33,118.5a33.07,33.07,0,0,1,7.52.87l1,.23-.45-.94A76.23,76.23,0,0,1,33.5,85.5c0-46.87,43.07-85,96-85s96,38.13,96,85A75.93,75.93,0,0,1,223,105l-.18.69.91-.08c.8-.06,1.61-.09,2.41-.09a32.27,32.27,0,0,1,31.79,26.18A32.75,32.75,0,0,1,251,158.74a32.42,32.42,0,0,1-24.69,11.76c-1.61-4.05-2.41-6.61-2.94-8.33-1.11-3.61-1.2-3.71-4.84-5.45l-.34-.17a12.57,12.57,0,0,0-5.64-1H212a8.49,8.49,0,0,1-1.69-.11l-.54-.11-.06.54a35.16,35.16,0,0,0-.22,5.15c.1,5.32,2.37,5.81,6.13,6.62a30.54,30.54,0,0,1,9.87,3.65,32.5,32.5,0,0,1-55.33,22.85l-.54-.53a7.49,7.49,0,0,1,.82-2.38c4.61-9.19-.32-13.53-4.66-17.36-2.3-2-4.47-3.93-5.1-6.38l.1-.87.09-.78-.74.24-.83.25-.87.24.66.61c.19.18.39.35.57.54a4.19,4.19,0,0,0,.53,1.61c.28.56.53,1.09.35,1.46-2.72,5.45-3.3,10.34-1.71,14.53,2.06,5.45,7.21,8.22,10.1,9.38l.34.13v.1A32.51,32.51,0,0,1,137,223.5Zm26-189c-7,0-12.5,14.06-12.5,32s5.49,32,12.5,32,12.5-14.06,12.5-32S170,34.5,163,34.5Zm-73,0c-7,0-12.5,14.06-12.5,32S83,98.5,90,98.5s12.5-14.06,12.5-32S97,34.5,90,34.5Z"/><path class="cls-2" d="M129.5,1C182.16,1,225,38.91,225,85.5a75.36,75.36,0,0,1-2.52,19.34l-.36,1.37,1.41-.11.21,0c.79-.06,1.59-.09,2.38-.09a31.77,31.77,0,0,1,31.29,25.78A32,32,0,0,1,226.68,170c-1.52-3.84-2.29-6.3-2.8-8-1.16-3.75-1.35-4-5.1-5.77l-.35-.16a13,13,0,0,0-5.85-1.07h-1.27c.05-1-.24-1.56-1.65-1.9l-.41-.1-1.12-.29-.12,1.15a2.45,2.45,0,0,0,1.13,2.69A37.68,37.68,0,0,0,209,161c.11,5.72,2.8,6.3,6.52,7.1a29.73,29.73,0,0,1,9.47,3.45,32,32,0,0,1-54.12,22.54l0-.29-.53-.19-.2-.2a7.62,7.62,0,0,1,.72-2c4.79-9.54-.51-14.21-4.77-18-2.21-2-4.3-3.79-4.92-6.05l0-.3c0-.16,0-.31.05-.47l.2-1.55-1.5.48-.81.24-1.73.48,1.32,1.22.43.39a5.3,5.3,0,0,0,.56,1.61c.15.3.43.87.36,1-2.8,5.59-3.38,10.61-1.74,14.94,2,5.33,6.88,8.16,9.9,9.46a1.89,1.89,0,0,0,.4.67,32,32,0,0,1-60.63,9c.3-.38.59-.75.89-1.11,3.86-4.81,7.19-9,9-17.31.85-3.83-1.74-8.43-4-12.49-.62-1.11-1.21-2.16-1.66-3.09l.36-.42,1.21-1.4-1.84-.24c-.4-.05-.79-.13-1.18-.2h-.09l-2-.36.9,1.79.16.33c-9.34,6.18-11.36,14.37-6.79,27.21,1.69,4.74,2.15,6.19,2.27,6.57a1.13,1.13,0,0,0,.27.57A31.86,31.86,0,0,1,81,216c-.67,0-1.36,0-2-.06A32.16,32.16,0,0,1,49,185.53a33.84,33.84,0,0,1,.08-4.38c8.15-1.58,14-5.09,17-10.18,2.57-4.4,2.88-9.7.93-15.77a30.91,30.91,0,0,1,3.35-1.4l1.85-.64L70.62,152c-1.5-1-2.81-2-4-3l-1.68-1.3L65,149.9c0,.36,0,.73,0,1.1,0,1,0,1.94-.13,2.93-7.94,2.42-13.63,6.42-16.47,11.62-2.3,4.18-2.76,9-1.38,14.23A32.12,32.12,0,0,1,33,183c-.63,0-1.26,0-1.89-.05A32,32,0,0,1,33,119a33,33,0,0,1,7.4.85l2,.48-.9-1.88A75.76,75.76,0,0,1,34,85.5C34,38.91,76.84,1,129.5,1M163,99c7.29,0,13-14.28,13-32.5S170.29,34,163,34s-13,14.28-13,32.5S155.71,99,163,99M90,99c7.29,0,13-14.28,13-32.5S97.29,34,90,34,77,48.28,77,66.5,82.71,99,90,99M129.5,0C76.2,0,33,38.28,33,85.5a77,77,0,0,0,7.63,33.38A33.61,33.61,0,0,0,33,118a33,33,0,0,0-1.95,65.94Q32,184,33,184a32.8,32.8,0,0,0,15.2-3.7c-3.43-11.65,2.46-21.23,17.6-25.6A34.85,34.85,0,0,0,66,151c0-.38,0-.76,0-1.13,1.32,1,2.68,2,4.07,3a32.06,32.06,0,0,0-4.25,1.84c5,14.2-3.1,23.05-17.6,25.6a34.24,34.24,0,0,0-.16,5.28,33.15,33.15,0,0,0,30.87,31.36c.7,0,1.4.06,2.09.06a33,33,0,0,0,25.87-12.5c-.38-.74-.52-.93-.56-.93s0,.05,0,.1l0,.14a.39.39,0,0,1,0-.14c-.13-.43-.63-2-2.3-6.67-4.16-11.68-3.16-20.07,7.13-26.5-.18-.39-.36-.77-.55-1.15.44.08.87.16,1.32.22-.26.3-.52.62-.77.93C113,174.62,118,181.3,117,186c-2,9-5.67,12.87-10.13,18.5a33,33,0,0,0,62.9-9.52.2.2,0,0,1-.15.06c-.19,0-.43-.25-.49-.82-6.72-2.7-14.89-9.69-8.13-23.22.53-1.06-.94-2.34-.82-3.49-.24-.25-.49-.48-.74-.71l.85-.25c0,.32-.07.64-.11,1C162,175,176.86,177.31,170,191a6.17,6.17,0,0,0-.87,3.22l.69.27c0,.16,0,.33,0,.49a.53.53,0,0,0,0-.49A33,33,0,0,0,226,171c-10.41-6.25-15.84-1.66-16-10a34,34,0,0,1,.22-5.08c-.88-.18-1.35-.67-1.22-1.92,1.51.39,1.42.15,1.22,1.92A9.27,9.27,0,0,0,212,156h.58a12.15,12.15,0,0,1,5.42,1c5.75,2.76,2.84,1.15,8,14a33,33,0,0,0,.11-66c-.81,0-1.63,0-2.45.09l-.21,0A76.29,76.29,0,0,0,226,85.5C226,38.28,182.8,0,129.5,0ZM163,98c-6.63,0-12-14.1-12-31.5S156.37,35,163,35s12,14.1,12,31.5S169.63,98,163,98ZM90,98c-6.63,0-12-14.1-12-31.5S83.37,35,90,35s12,14.1,12,31.5S96.63,98,90,98Z"/><circle class="cls-3" cx="162.5" cy="65.5" r="7"/><path class="cls-2" d="M162.5,59a6.5,6.5,0,1,1-6.5,6.5,6.51,6.51,0,0,1,6.5-6.5m0-1a7.5,7.5,0,1,0,7.5,7.5,7.5,7.5,0,0,0-7.5-7.5Z"/><circle class="cls-3" cx="89.5" cy="66.5" r="7"/><path class="cls-2" d="M89.5,60A6.5,6.5,0,1,1,83,66.5,6.51,6.51,0,0,1,89.5,60m0-1A7.5,7.5,0,1,0,97,66.5,7.5,7.5,0,0,0,89.5,59Z"/><circle class="cls-4" cx="89.5" cy="66.5" r="3"/><circle class="cls-4" cx="162.5" cy="65.5" r="3"/></symbol></defs><use width="259" height="224" xlink:href="#New_Symbol"/></svg>